<svg width="51" height="56" viewBox="0 0 51 56" fill="none" xmlns="http://www.w3.org/2000/svg">
<g filter="url(#filter0_f_1575_2)">
<path d="M20.3454 42.4852L19.6558 16.6823L37.6421 35.1961L32.5349 38.7437L46.9608 38.8738L15.6208 6.9407L16.5889 51.6731L26.4513 41.3075L20.3454 42.4852Z" fill="#01F3FE"/>
<path d="M27.7216 39.093L28.7514 38.0975L30.1831 38.0557L31.788 38.0812L35.8698 35.0977L20.8144 19.2634L21.6329 41.0974L26.6189 40.2595L27.7216 39.093Z" fill="#01F3FE"/>
</g>
<g filter="url(#filter1_f_1575_2)">
<path d="M20.3451 42.4857L19.6556 16.6828L37.6418 35.1966L32.5347 38.7442L46.9606 38.8743L15.6206 6.94119L16.5886 51.6736L26.451 41.308L20.3451 42.4857Z" fill="#01F3FE"/>
<path d="M27.7213 39.0935L28.7511 38.098L30.1828 38.0562L31.7878 38.0817L35.8696 35.0982L20.8141 19.2639L21.6327 41.0979L26.6187 40.26L27.7213 39.0935Z" fill="#01F3FE"/>
</g>
<g filter="url(#filter2_f_1575_2)">
<path d="M20.3451 42.4857L19.6556 16.6828L37.6418 35.1966L32.5347 38.7442L46.9606 38.8743L15.6206 6.94119L16.5886 51.6736L26.451 41.308L20.3451 42.4857Z" fill="#01F3FE"/>
<path d="M27.7213 39.0935L28.7511 38.098L30.1828 38.0562L31.7878 38.0817L35.8696 35.0982L20.8141 19.2639L21.6327 41.0979L26.6187 40.26L27.7213 39.0935Z" fill="#01F3FE"/>
</g>
<g filter="url(#filter3_f_1575_2)">
<path d="M20.3451 42.4857L19.6556 16.6828L37.6418 35.1966L32.5347 38.7442L46.9606 38.8743L15.6206 6.94119L16.5886 51.6736L26.451 41.308L20.3451 42.4857Z" fill="#01F3FE"/>
<path d="M27.7213 39.0935L28.7511 38.098L30.1828 38.0562L31.7878 38.0817L35.8696 35.0982L20.8141 19.2639L21.6327 41.0979L26.6187 40.26L27.7213 39.0935Z" fill="#01F3FE"/>
</g>
<mask id="path-5-inside-1_1575_2" fill="white">
<path fill-rule="evenodd" clip-rule="evenodd" d="M19.6556 16.6828L20.3451 42.4857L26.451 41.308L16.5886 51.6736L15.6206 6.94119L46.9606 38.8743L32.5347 38.7442L37.6418 35.1966L19.6556 16.6828ZM29.0173 38.5793L27.9875 39.5748L26.8848 40.7414L21.0992 41.8709L20.3451 18.4509L36.7125 35.1966L32.0539 38.563L30.449 38.5375L29.0173 38.5793ZM28.6099 37.3896L27.8794 38.0958L27.0971 38.9234L22.9928 39.7247L22.0178 22.5836L34.069 34.9899L30.7642 37.378L29.6256 37.3599L28.6099 37.3896Z"/>
</mask>
<g filter="url(#filter4_ii_1575_2)">
<path fill-rule="evenodd" clip-rule="evenodd" d="M19.6556 16.6828L20.3451 42.4857L26.451 41.308L16.5886 51.6736L15.6206 6.94119L46.9606 38.8743L32.5347 38.7442L37.6418 35.1966L19.6556 16.6828ZM29.0173 38.5793L27.9875 39.5748L26.8848 40.7414L21.0992 41.8709L20.3451 18.4509L36.7125 35.1966L32.0539 38.563L30.449 38.5375L29.0173 38.5793ZM28.6099 37.3896L27.8794 38.0958L27.0971 38.9234L22.9928 39.7247L22.0178 22.5836L34.069 34.9899L30.7642 37.378L29.6256 37.3599L28.6099 37.3896Z" fill="#133333"/>
<path fill-rule="evenodd" clip-rule="evenodd" d="M19.6556 16.6828L20.3451 42.4857L26.451 41.308L16.5886 51.6736L15.6206 6.94119L46.9606 38.8743L32.5347 38.7442L37.6418 35.1966L19.6556 16.6828ZM29.0173 38.5793L27.9875 39.5748L26.8848 40.7414L21.0992 41.8709L20.3451 18.4509L36.7125 35.1966L32.0539 38.563L30.449 38.5375L29.0173 38.5793ZM28.6099 37.3896L27.8794 38.0958L27.0971 38.9234L22.9928 39.7247L22.0178 22.5836L34.069 34.9899L30.7642 37.378L29.6256 37.3599L28.6099 37.3896Z" fill="#133333"/>
</g>
<path d="M20.3451 42.4857L20.1452 42.4911L20.1515 42.7267L20.383 42.6821L20.3451 42.4857ZM19.6556 16.6828L19.799 16.5435L19.442 16.1759L19.4557 16.6882L19.6556 16.6828ZM26.451 41.308L26.5959 41.4458L27.0265 40.9933L26.4131 41.1116L26.451 41.308ZM16.5886 51.6736L16.3887 51.6779L16.3992 52.1628L16.7335 51.8114L16.5886 51.6736ZM15.6206 6.94119L15.7633 6.8011L15.4097 6.44079L15.4206 6.94552L15.6206 6.94119ZM46.9606 38.8743L46.9588 39.0743L47.4414 39.0786L47.1033 38.7342L46.9606 38.8743ZM32.5347 38.7442L32.4206 38.58L31.9044 38.9385L32.5329 38.9442L32.5347 38.7442ZM37.6418 35.1966L37.7559 35.3609L37.9496 35.2263L37.7853 35.0572L37.6418 35.1966ZM27.9875 39.5748L27.8483 39.4309L27.8421 39.4374L27.9875 39.5748ZM29.0173 38.5793L29.0114 38.3794L28.934 38.3817L28.8783 38.4355L29.0173 38.5793ZM26.8848 40.7414L26.9231 40.9376L26.9861 40.9254L27.0302 40.8787L26.8848 40.7414ZM21.0992 41.8709L20.8993 41.8773L20.9069 42.1122L21.1376 42.0672L21.0992 41.8709ZM20.3451 18.4509L20.4882 18.3111L20.1287 17.9434L20.1452 18.4574L20.3451 18.4509ZM36.7125 35.1966L36.8297 35.3587L37.0178 35.2228L36.8556 35.0568L36.7125 35.1966ZM32.0539 38.563L32.0508 38.763L32.1172 38.764L32.1711 38.7251L32.0539 38.563ZM30.449 38.5375L30.4521 38.3373L30.4431 38.3376L30.449 38.5375ZM27.8794 38.0958L27.7402 37.9519L27.734 37.9584L27.8794 38.0958ZM28.6099 37.3896L28.6041 37.1897L28.5266 37.192L28.4709 37.2458L28.6099 37.3896ZM27.0971 38.9234L27.1355 39.1197L27.1984 39.1074L27.2425 39.0608L27.0971 38.9234ZM22.9928 39.7247L22.7931 39.736L22.8061 39.9649L23.0311 39.921L22.9928 39.7247ZM22.0178 22.5836L22.1613 22.4442L21.7877 22.0597L21.8181 22.595L22.0178 22.5836ZM34.069 34.9899L34.1862 35.152L34.3737 35.0165L34.2125 34.8505L34.069 34.9899ZM30.7642 37.378L30.761 37.578L30.8275 37.5791L30.8813 37.5401L30.7642 37.378ZM29.6256 37.3599L29.6288 37.1598L29.6197 37.16L29.6256 37.3599ZM20.5451 42.4804L19.8555 16.6775L19.4557 16.6882L20.1452 42.4911L20.5451 42.4804ZM26.4131 41.1116L20.3073 42.2893L20.383 42.6821L26.4889 41.5043L26.4131 41.1116ZM16.7335 51.8114L26.5959 41.4458L26.3061 41.1701L16.4437 51.5357L16.7335 51.8114ZM15.4206 6.94552L16.3887 51.6779L16.7886 51.6692L15.8205 6.93686L15.4206 6.94552ZM47.1033 38.7342L15.7633 6.8011L15.4778 7.08128L46.8179 39.0144L47.1033 38.7342ZM32.5329 38.9442L46.9588 39.0743L46.9624 38.6743L32.5365 38.5442L32.5329 38.9442ZM37.5277 35.0323L32.4206 38.58L32.6488 38.9085L37.7559 35.3609L37.5277 35.0323ZM19.5121 16.8222L37.4984 35.336L37.7853 35.0572L19.799 16.5435L19.5121 16.8222ZM28.1265 39.7186L29.1563 38.7231L28.8783 38.4355L27.8485 39.431L28.1265 39.7186ZM27.0302 40.8787L28.1328 39.7122L27.8421 39.4374L26.7395 40.604L27.0302 40.8787ZM21.1376 42.0672L26.9231 40.9376L26.8465 40.5451L21.0609 41.6746L21.1376 42.0672ZM20.1452 18.4574L20.8993 41.8773L21.2991 41.8645L20.545 18.4445L20.1452 18.4574ZM36.8556 35.0568L20.4882 18.3111L20.2021 18.5907L36.5695 35.3364L36.8556 35.0568ZM32.1711 38.7251L36.8297 35.3587L36.5954 35.0345L31.9368 38.4009L32.1711 38.7251ZM30.4458 38.7375L32.0508 38.763L32.0571 38.363L30.4521 38.3375L30.4458 38.7375ZM29.0231 38.7793L30.4548 38.7374L30.4431 38.3376L29.0114 38.3794L29.0231 38.7793ZM28.0184 38.2396L28.7489 37.5334L28.4709 37.2458L27.7404 37.952L28.0184 38.2396ZM27.2425 39.0608L28.0247 38.2332L27.734 37.9584L26.9518 38.786L27.2425 39.0608ZM23.0311 39.921L27.1355 39.1197L27.0588 38.7271L22.9545 39.5284L23.0311 39.921ZM21.8181 22.595L22.7931 39.736L23.1925 39.7133L22.2175 22.5722L21.8181 22.595ZM34.2125 34.8505L22.1613 22.4442L21.8744 22.723L33.9256 35.1292L34.2125 34.8505ZM30.8813 37.5401L34.1862 35.152L33.9519 34.8278L30.647 37.2159L30.8813 37.5401ZM29.6224 37.5599L30.761 37.578L30.7674 37.1781L29.6288 37.16L29.6224 37.5599ZM28.6158 37.5895L29.6314 37.5599L29.6197 37.16L28.6041 37.1897L28.6158 37.5895Z" fill="white" mask="url(#path-5-inside-1_1575_2)"/>
<defs>
<filter id="filter0_f_1575_2" x="11.6208" y="2.94092" width="39.3401" height="52.7319" filterUnits="userSpaceOnUse" color-interpolation-filters="sRGB">
<feFlood flood-opacity="0" result="BackgroundImageFix"/>
<feBlend mode="normal" in="SourceGraphic" in2="BackgroundImageFix" result="shape"/>
<feGaussianBlur stdDeviation="2" result="effect1_foregroundBlur_1575_2"/>
</filter>
<filter id="filter1_f_1575_2" x="11.6206" y="2.94141" width="39.3401" height="52.7319" filterUnits="userSpaceOnUse" color-interpolation-filters="sRGB">
<feFlood flood-opacity="0" result="BackgroundImageFix"/>
<feBlend mode="normal" in="SourceGraphic" in2="BackgroundImageFix" result="shape"/>
<feGaussianBlur stdDeviation="2" result="effect1_foregroundBlur_1575_2"/>
</filter>
<filter id="filter2_f_1575_2" x="11.6206" y="2.94141" width="39.3401" height="52.7319" filterUnits="userSpaceOnUse" color-interpolation-filters="sRGB">
<feFlood flood-opacity="0" result="BackgroundImageFix"/>
<feBlend mode="normal" in="SourceGraphic" in2="BackgroundImageFix" result="shape"/>
<feGaussianBlur stdDeviation="2" result="effect1_foregroundBlur_1575_2"/>
</filter>
<filter id="filter3_f_1575_2" x="11.6206" y="2.94141" width="39.3401" height="52.7319" filterUnits="userSpaceOnUse" color-interpolation-filters="sRGB">
<feFlood flood-opacity="0" result="BackgroundImageFix"/>
<feBlend mode="normal" in="SourceGraphic" in2="BackgroundImageFix" result="shape"/>
<feGaussianBlur stdDeviation="2" result="effect1_foregroundBlur_1575_2"/>
</filter>
<filter id="filter4_ii_1575_2" x="15.6206" y="6.94141" width="31.3401" height="44.7319" filterUnits="userSpaceOnUse" color-interpolation-filters="sRGB">
<feFlood flood-opacity="0" result="BackgroundImageFix"/>
<feBlend mode="normal" in="SourceGraphic" in2="BackgroundImageFix" result="shape"/>
<feColorMatrix in="SourceAlpha" type="matrix" values="0 0 0 0 0 0 0 0 0 0 0 0 0 0 0 0 0 0 127 0" result="hardAlpha"/>
<feOffset/>
<feGaussianBlur stdDeviation="1"/>
<feComposite in2="hardAlpha" operator="arithmetic" k2="-1" k3="1"/>
<feColorMatrix type="matrix" values="0 0 0 0 0.00392157 0 0 0 0 0.952941 0 0 0 0 0.996078 0 0 0 1 0"/>
<feBlend mode="normal" in2="shape" result="effect1_innerShadow_1575_2"/>
<feColorMatrix in="SourceAlpha" type="matrix" values="0 0 0 0 0 0 0 0 0 0 0 0 0 0 0 0 0 0 127 0" result="hardAlpha"/>
<feOffset/>
<feGaussianBlur stdDeviation="0.5"/>
<feComposite in2="hardAlpha" operator="arithmetic" k2="-1" k3="1"/>
<feColorMatrix type="matrix" values="0 0 0 0 0.00392157 0 0 0 0 0.952941 0 0 0 0 0.996078 0 0 0 1 0"/>
<feBlend mode="normal" in2="effect1_innerShadow_1575_2" result="effect2_innerShadow_1575_2"/>
</filter>
</defs>
</svg>
