<?xml version="1.0" encoding="UTF-8"?><svg id="a" xmlns="http://www.w3.org/2000/svg" viewBox="0 0 328 193"><defs><style>.b{fill:#02d6dc;}</style></defs><path class="b" d="M67.32,120.13l1.32-4.69c1.01,2.86,3.2,5.25,6.16,6.45-.75,2.66-2.97,3.5-4.83,2.98-2.04-.58-3.23-2.7-2.65-4.74Z"/><path class="b" d="M71.74,95.99c.35-1.23,1.62-1.94,2.84-1.59l7.39,2.09c1.22,.35,1.94,1.62,1.59,2.84-.35,1.22-1.62,1.94-2.84,1.59l-.05,.17c-3.15-.53-6.26,.37-8.62,2.28l1.28-4.53c-1.22-.35-1.94-1.62-1.59-2.84Z"/><path class="b" d="M73.4,110.3c.83-3.03,3.97-4.81,7-3.98l3.28,.9-3.23,10.93-3.08-.85c-3.03-.84-4.81-3.97-3.98-7.01Z"/><path class="b" d="M34.25,170.3h0c-1.23-.76-1.53-2.41-.68-3.56l7.79-10.46v-15.15c0-.82,.66-1.48,1.48-1.48h4.93c.82,0,1.48,.66,1.48,1.48v15.15l7.79,10.46c.86,1.15,.55,2.8-.68,3.56h2.36l9.52-7.08c1.19-.88,2.72-1.14,4.13-.7l24.65,7.78h10.99c-.78-.47-1.47-1.11-2.03-1.91l-12.85-18.32c.74,.53,27.4,19.67,28.17,20.23h6.47c-.35-.21,1.95,1.43-33.24-23.84-2.38-1.71-3.4-4.74-2.55-7.54s3.39-4.75,6.32-4.84l21.21-.68-7.39-1.06-13.95-2.01c-5.5-.79-10.6,3.03-11.39,8.53-.1,.7-.12,1.39-.08,2.07l-4.67-6.66c-1.46-2.08-1.64-4.8-.48-7.06,.58-1.12,1.44-2.04,2.48-2.68,2.79,.77,11.02,3.04,14.05,3.87,2.99,.82,6.05-.24,7.93-2.46,1.59-1.89,14.55-17.28,16.38-19.46l-19.64,15.44c-1.41,1.11-3.27,1.5-5.03,1.01l-11.75-3.24,3.23-10.93,8.78,2.42,18.95-14.89-10.86,5.62-.25-1.26c-.79-3.11,.24-6.26,2.43-8.31l-.27-1.95c-1.94-.45-3.79-1.23-5.46-2.32,5-2.25,8.55-5.83,9.39-9.1,.67,.12,1.38,.06,2.05-.22,1.85-.78,2.71-2.9,1.94-4.75-.77-1.85-2.9-2.72-4.75-1.94-.67,.28-1.21,.74-1.59,1.31-2.59-1.5-7.94-2.04-14.35,.88,.2-5.75,3.63-11.13,9.37-13.63,7.99-3.48,17.47-.08,21.4,7.6,3.22,.25,8.04,1.28,12.06,4.81,2.28,2,4,4.53,5.16,7.54,1.5,.28,2.97,.8,4.32,1.57,3.34,1.9,5.74,5.12,6.61,8.87,1.09,4.68,.09,.43,5.77,24.68,1.76,7.54-3.01,15.05-10.57,16.65l-5.95,1.26s0,0,0,0c.2,3.34-.96,6.61-3.22,9.08-2.25,2.47-5.41,3.92-8.75,4.03-4.75,.15-9.67,.31-12.54,.4l16.46,11.82c3.07,2.2,3.77,6.47,1.57,9.54-.19,.27-.4,.52-.62,.75,6.45-2.47,5.16-1.98,6.77-2.59,.84-.32,1.76-.39,2.64-.2l17.62,3.89h7.17v9.22h-7.67c-.33,0-.67-.04-.99-.11l-16.76-3.7-9.15,3.5c-.53,.2-1.08,.3-1.64,.3h-37.91c-.47,0-.94-.07-1.38-.21l-23.08-7.28-8.86,6.59c-.79,.59-1.76,.91-2.75,.91H12.98v-9.22h21.27ZM123,87.73c.09,0,.17-.01,.26-.01,1-1.91,2.73-3.44,4.95-4.15l7.68-2.44c-.64-1.14-1.43-2.12-2.35-2.94-1.82-1.61-3.97-2.43-5.85-2.83-.02,4.18-1.76,8.21-4.86,11.11l.18,1.26Z"/><path class="b" d="M277.47,45.77l4.46-4.56c1.8-1.84,1.77-4.79-.07-6.59-1.84-1.8-4.79-1.77-6.59,.07l-4.4,4.49-22.86-22.86c-6.81,8.31-6.96,20.89-1.16,32.32-1.89-1.6-4.64-1.95-6.92-.66l-3.45,1.95,6.3,10.4,3.13-1.77c2.29-1.3,3.41-3.86,2.99-6.31,1.16,1.83,2.48,3.61,3.96,5.32l-11.79,12.03c3.29,.6,6.11,2.59,7.8,5.35l10.74-10.97c12.97,10.06,29.32,11.58,39.38,3.33l-21.54-21.54Z"/><path class="b" d="M226.92,159.36l-2.69-35.15c-.07-.96-.34-1.89-.77-2.75l-12.62-24.83,.4-4.49c-1.26-.56-2.35-1.43-3.18-2.52h-28.75s-.16,3.05-.41,7.95l1.38,28.84-9.5,31.38c-1.17,3.85,1.01,7.93,4.87,9.09,3.86,1.17,7.93-1.01,9.09-4.87l9.87-32.58c.24-.79,.34-1.62,.31-2.45l-1.28-27.93h2.09l14.08,27.7,2.58,33.7c.31,4.02,3.82,7.02,7.83,6.72,4.02-.31,7.02-3.81,6.72-7.83Z"/><path class="b" d="M219.47,75.14l-15.5-20.52,9.85,8.9,6.73,6.09,5.95-.06,11.34-6.42-6.3-10.4-8.55,4.84-8.31-3.71c.14-2.56-.81-4.95-2.47-6.71v-3.46c2.72-1.39,5.04-3.45,6.74-5.96-5.86-.15-10.83-2.2-13-5.07-.61,.4-1.33,.63-2.11,.63-2.14,0-3.87-1.73-3.87-3.87s1.73-3.87,3.87-3.87c.78,0,1.5,.23,2.11,.63,2.89-3.82,9.45-5.22,14.49-5.07-2.57-5.57-8.17-9.44-14.85-9.53-9.47-.13-17.51,7.39-17.96,16.8-.26,5.37,2.03,10.2,5.79,13.37v1.52c-1.3,.2-2.57,.58-3.77,1.12-2.15,.68-8.28,4.93-8.67,12.69-.26,5.13-.02,.57-1.36,26.31h25.26l-9.34-19.74,16.07,21.28c1.15,1.52,2.94,2.41,4.85,2.41,.02,0,.04,0,.06,0l13.41-.14-.51-12.15-9.96,.11Z"/><path class="b" d="M239,74.93s-.04,0-.07,0l-3.82,.04,.51,12.15,3.44-.04c3.36-.04,6.05-2.78,6.01-6.14-.04-3.33-2.75-6.01-6.08-6.01Z"/><path class="b" d="M309.12,157.9h-18.16v-28.93c0-3.22-2.61-5.82-5.82-5.82h-36.7v-35.4c-2.08,2.91-5.47,4.82-9.32,4.86v69.95c0,2.57,2.09,4.66,4.66,4.66h65.34c2.57,0,4.66-2.09,4.66-4.66,0-2.57-2.09-4.66-4.66-4.66Zm-32.99-10.92c-2.92,0-5.28-2.36-5.28-5.28s2.36-5.28,5.28-5.28,5.28,2.36,5.28,5.28-2.36,5.28-5.28,5.28Z"/></svg>