<?xml version="1.0" encoding="UTF-8"?><svg id="a" xmlns="http://www.w3.org/2000/svg" viewBox="0 0 236 225"><defs><style>.b{fill:#02d0d6;}</style></defs><path class="b" d="M182.11,80.64c8.11,0,24.03,4.92,31.73,7.48V24.2c-13.23-4-19.65-6.65-28.91-7.15v-.08h-5.63v.08c-14.68,.78-21.62,7.64-39.74,2.17l-3.63-1.1-8.82-2.66v-.73h-18.75v53.85h5.63V20.37h7.48v110.26h-7.48v-56.24h-5.63v32.13c-49.93,4.83-87.85,47.55-86.71,97.69l.06,2.75H119.55v-5.63h-24.84c-.79-13.27-11.83-23.82-25.29-23.82s-24.5,10.55-25.29,23.82H27.26c.43-45.95,35.66-84.46,81.1-89.14v18.45h-14.61v19.28h47.97v-19.28h-14.61v-18.45c14.24,1.47,27.47,6.26,38.95,13.56-7.16,4.6-11.72,12.65-11.72,21.36,0,13.97,11.37,25.34,25.34,25.34,7.72,0,14.86-3.46,19.62-9.29,5.6,11.62,8.78,24.57,8.91,38.18h-19.26c.36-8.07-6.1-14.72-14.06-14.72s-14.42,6.64-14.06,14.72h-35.51v5.63h88.44c-.15-1.72,2.34-24.25-10.92-49.46v-.02c-1.68-2.97-5.91-11.29-14.8-20.83-16.05-17.23-37.6-27.86-60.93-30.12v-27.13c10.17,2.65,12.66,4.88,23.28,5.44v.08c19.78,0,17.24-4.27,31.73-4.27h0Zm-112.7,102.49c10.36,0,18.87,8.03,19.65,18.18H49.77c.78-10.16,9.3-18.18,19.65-18.18Zm66.67-46.88v8.02h-36.71v-8.02h36.71Zm30.37,65.06c-.37-4.93,3.55-9.09,8.42-9.09s8.79,4.16,8.42,9.09h-16.85Zm13.22-34.52c-10.87,0-19.71-8.84-19.71-19.71,0-7.6,4.47-14.57,11.26-17.81,10.24,7.55,18.83,17.21,25.14,28.29-3.59,5.73-9.85,9.23-16.69,9.23ZM208.21,28.38v52.16l-8.83-2.67V25.71l8.83,2.67Zm-14.46-4.32v52.25c-2.9-.66-5.85-1.06-8.82-1.22V22.68c2.98,.18,5.93,.64,8.82,1.38h0Zm-14.45-1.38v52.4c-2.97,.16-5.93,.57-8.83,1.22V24.05c2.9-.74,5.85-1.2,8.83-1.38Zm-52.19,50.82V21.34l8.82,2.66v52.16l-8.82-2.67Zm14.45,4.32V25.57c2.9,.66,5.85,1.07,8.83,1.22v52.4c-2.98-.18-5.94-.64-8.83-1.37Zm14.46,1.37V26.79c2.97-.16,5.92-.57,8.82-1.22v52.25c-2.89,.74-5.84,1.19-8.82,1.37Z"/><path class="b" d="M24.07,72.02c5,5,14.23,1.37,20.37-2.07,20.96,8.83,42.2-12.63,33.01-33.52,4.63-8.74,5.17-15.55,1.47-19.26-4.34-4.34-12.97-2.84-23.74,4.1-14.47-.53-26.58,11.2-26.26,25.87-7.6,11.32-9.38,20.36-4.85,24.88Zm26.63-6.05c8.53-6.07,17.03-14.66,22.89-23.2,2.69,13.63-9.23,25.69-22.89,23.2Zm24.24-44.82c1.18,1.19,1.19,4.49-.97,9.54-2.74-3.4-6.34-6.07-10.47-7.69,5.87-2.89,10.02-3.26,11.44-1.85Zm-20.69,5.72c7.1,0,13.34,3.78,16.81,9.43-6.06,10.08-16.73,20.87-26.85,27.23-5.78-3.44-9.67-9.75-9.67-16.95,0-10.87,8.84-19.71,19.71-19.71Zm-23.75,28.55c1.66,4.44,4.52,8.28,8.2,11.14-5.65,2.63-9.4,2.72-10.65,1.47-1.5-1.5-.94-6.16,2.45-12.61Z"/><path class="b" d="M141.72,178.15c0-7.76-6.32-14.08-14.08-14.08s-14.08,6.32-14.08,14.08,6.32,14.08,14.08,14.08,14.08-6.32,14.08-14.08Zm-22.52,0c0-4.66,3.79-8.45,8.45-8.45s8.45,3.79,8.45,8.45-3.79,8.45-8.45,8.45-8.45-3.79-8.45-8.45Z"/><path class="b" d="M55.65,161.37c0,6.21,5.05,11.26,11.26,11.26s11.26-5.05,11.26-11.26-5.05-11.26-11.26-11.26-11.26,5.05-11.26,11.26Zm16.89,0c0,3.11-2.53,5.63-5.63,5.63s-5.63-2.53-5.63-5.63,2.53-5.63,5.63-5.63,5.63,2.53,5.63,5.63Z"/><path class="b" d="M86.99,136.8c0-4.66-3.79-8.45-8.45-8.45s-8.45,3.79-8.45,8.45,3.79,8.45,8.45,8.45,8.45-3.79,8.45-8.45Zm-11.26,0c0-1.55,1.26-2.82,2.82-2.82s2.82,1.26,2.82,2.82-1.26,2.82-2.82,2.82c-1.55,0-2.82-1.26-2.82-2.82Z"/><path class="b" d="M47.86,36.39l3.67-3.67,3.98,3.98-3.67,3.67-3.98-3.98Z"/><path class="b" d="M40.37,43.89l3.85-3.85,3.98,3.98-3.85,3.85-3.98-3.98Z"/></svg>