<?xml version="1.0" encoding="UTF-8"?><svg id="a" xmlns="http://www.w3.org/2000/svg" viewBox="0 0 285 189"><defs><style>.b{fill:#04e3e9;}</style></defs><g><path class="b" d="M117.8,117.45l13.48,1.19-5.71-12.27,10.3-3.24-7.95-7.3,10.38-8.69-12.71-4.64,5-9.57-10.79,.46,1.19-13.48-12.27,5.71-3.24-10.3-7.3,7.95-8.69-10.38-4.64,12.71-9.57-4.99,.46,10.79-13.48-1.19,5.71,12.27-10.3,3.24,7.95,7.3-10.38,8.69,12.71,4.64-5,9.57,10.79-.46-1.19,13.48,12.27-5.71,3.24,10.3,7.3-7.95,8.69,10.38,4.64-12.71,9.57,4.99-.46-10.79Zm-11.53-.44l-3.75,10.26-7.01-8.38-5.54,6.03-2.45-7.81-9.91,4.61,.96-10.88-8.18,.35,3.79-7.26-10.26-3.75,8.38-7.01-6.03-5.54,7.81-2.45-4.61-9.91,10.88,.96-.35-8.18,7.26,3.79,3.75-10.26,7.01,8.38,5.54-6.03,2.45,7.81,9.91-4.61-.96,10.88,8.18-.35-3.79,7.26,10.26,3.75-8.38,7.01,6.03,5.54-7.81,2.45,4.61,9.91-10.88-.96,.35,8.18-7.26-3.79Z"/><path class="b" d="M101.08,75.06c-10.68-2.38-21.3,4.37-23.68,15.05s4.37,21.3,15.05,23.68,21.3-4.37,23.68-15.05c2.38-10.68-4.37-21.3-15.05-23.68h0Zm-7.67,34.43c-8.3-1.85-13.56-10.11-11.71-18.42s10.11-13.56,18.42-11.71c8.3,1.85,13.56,10.11,11.71,18.42s-10.11,13.56-18.42,11.71h0Z"/><path class="b" d="M161.92,139.07c-2.63-4.13-9.62-4.45-19.23-.9-11.23-2.95-22.72,4.15-25.01,15.63-7.91,7.51-10.88,14.26-8.14,18.56,3.03,4.76,10.88,3.52,16.26,1.9,14.82,10.57,35.16-2.52,31.6-20.43,5.15-6.02,6.75-11.24,4.51-14.76h0Zm-20.94,3.21c5.59,1.24,9.82,5.31,11.55,10.37-6.51,6.85-16.77,13.46-25.82,16.67-3.95-3.71-5.91-9.35-4.65-15.02,1.9-8.53,10.38-13.92,18.91-12.02h0Zm-27.72,27.71c-.95-1.5,.3-5.06,4.19-9.6,.51,3.82,2.11,7.39,4.53,10.31-4.95,1.1-7.95,.51-8.72-.71h0Zm17.98,2.3c7.71-3.23,15.96-8.5,22.14-14.28-.19,11.32-11.84,18.73-22.14,14.28Zm17.51-31.4c5.18-1.27,8.56-.84,9.44,.54,.73,1.16,.15,3.79-2.48,7.42-1.57-3.19-3.96-5.96-6.96-7.97h0Z"/><path class="b" d="M34.12,118.12c-16.7-3.72-29.56,14.74-20.43,29.11,5.71,8.98,17.59,11.62,26.57,5.92,14.38-9.14,10.55-31.31-6.14-35.03Zm3.78,31.31c-6.92,4.4-16.08,2.36-20.48-4.56-7.05-11.09,2.88-25.31,15.75-22.44,12.87,2.87,15.81,19.96,4.73,27Z"/><path class="b" d="M159.98,70.36c10.38,2.31,20.66-4.22,22.97-14.6,3.72-16.69-14.73-29.56-29.11-20.43-14.58,9.27-10.39,31.35,6.14,35.03Zm-3.78-31.31c11.1-7.06,25.3,2.9,22.44,15.75-1.78,8-9.7,13.04-17.71,11.26-12.78-2.85-15.92-19.89-4.73-27Z"/><path class="b" d="M48.66,41.71c6.1,10.08,19.28,12.77,28.83,6.19,10.25,.06,16.71-2.61,17.78-7.39,.9-4.07-2.38-8.43-9.26-12.34-2.75-17.99-26.24-23.55-36.69-8.47-8.5,.47-13.69,3.05-14.64,7.32-1.11,4.98,3.97,10.31,13.97,14.69Zm13.89,4.99c-10.04-2.24-15.41-13.34-10.68-22.66,4.56-.03,9.68,.56,14.9,1.72,5.61,1.25,10.79,3.03,15.07,5.18,.18,10.33-9.32,17.98-19.29,15.76Zm28.42-7.14c-.36,1.59-3.38,3.15-8.68,3.72,2.08-2.81,3.43-6.17,3.84-9.85,3.7,2.52,5.14,4.8,4.84,6.13Zm-10.16-13.95c-7.78-3.33-17.33-5.48-25.68-5.9,8.23-7.72,21.65-4.65,25.68,5.9Zm-33.86-1.26c-1.34,3.73-1.55,7.6-.75,11.23-5.2-2.94-7.59-5.86-7.2-7.59,.31-1.41,2.92-2.98,7.95-3.63Z"/><path class="b" d="M99.74,92.59l4.25,.95-.96,4.32-4.25-.95,.96-4.32Z"/><path class="b" d="M91.21,90.68l4.32,.96-.96,4.32-4.32-.96,.96-4.32Z"/></g><g><path class="b" d="M276.49,65.94h0c-.72-.32-9.24-5.76-21.96-7.1-.19,.01-16.31-2.68-33.26,6.83l-14.62-12.64-12.26,5.41,1.18,2.67,10.57-4.66,12.49,10.8c-3.9,2.48-6.28,4.66-7.1,5.31h0c-4.03,3.35-2.09,1.74-4.81,4l-2.14-4.85-20.88,.59-2.19-4.97,11.14-4.92-1.18-2.67-13.81,6.1,4.16,9.43,20.88-.59,1.69,3.82c-1.78,1.48-3.77,3.14-6.29,5.23l-12.86-.52c1.32,2.99,2.75,6.22,4.54,10.28-1.82,.38-2.88,1.01-3.94,1.95-2.03-6.01-9.49-8.36-14.59-4.46-5.5-4.21-12.84,1.41-10.74,7.64-3.42,2.13-4.79,6.48-3.17,10.2-3.38,3.88-6.53,9.18-9.01,13.64,4.97,1.17,11,2.41,16.15,2.53,1.66,3.71,5.8,5.62,9.68,4.53,2,3.58,6.85,4.74,10.27,2.04,1.53-1.21,2.46-2.94,2.61-4.82,6.3-1.15,9.61-8.23,6.53-13.78,1.58-.19,2.89-.7,4.1-1.59,.53,1.2,4.07,9.21,4.57,10.36l8.28-9.85c3.07-.42,5.56-.75,8.11-1.09l1.62,3.67-14.5,15.04,4.16,9.43,15.6-6.89-1.18-2.67-12.93,5.71-2.19-4.97,14.5-15.04-2.07-4.69c6.43-.86,10.84-1.52,14.83-2.56l-.43,16.38-8.57,3.79,1.18,2.67,10.26-4.53,.51-19.17c10.14-3.33,19.57-9.83,26.43-18.59l.03,.06c1.13-1.99,6.97-7.78,10.6-22.48Zm-3.38,1.49c-1.4,5.24-3.63,10.32-6.66,15.02l-8.94-20.25c5.28,.89,10.54,2.6,15.6,5.24Zm-62.44,41.47l-2.72-6.16,11.48-5.07,4.17,9.44c-1.27,.18-11.94,1.65-12.93,1.79Zm8.62-14.35l-21.56,9.52-2.48-5.62,21.56-9.52,7.21,.18-4.73,5.45Zm-16.18-2.77l-2.72-6.16c.14-.12,9.84-8.2,10.03-8.35l4.17,9.44-11.48,5.07Zm-5.47-5.15l2.79,6.33-6.43,2.84c-1.23-2.78-2.62-5.92-4.19-9.49l7.83,.32Zm-6.35,33.39c-1.01,2.36-3.22,3.87-5.77,3.95l-1.62,.05c-.03,.76,1.08,3.39-1.27,5.24-2.23,1.76-5.49,.67-6.27-2.01l-.49-1.68c-.82,.27-3.05,2.19-6.02,.89-2.83-1.23-3.05-3.97-3.26-4.4-.49-.04-4.22,.4-13.78-1.58,5.09-8.59,7.72-10.72,8.12-11.25-.18-.45-2.05-2.46-1.06-5.38,1.05-3.07,3.93-3.4,4.71-3.84l-.91-1.49c-1.98-3.24,1.3-7.15,4.82-5.78,1.39,.54,1.81,1.49,2.65,2.38l1.12-1.16c3.68-3.8,10.54-1.95,11.15,4.11-2.8,3.57-5.28,8.39-6.25,10.36l-1.06,1.56c4.43,1.33,9.27,2.64,13.89,2.99,.03,.06,3.07,2.89,1.29,7.05h0Zm1.2-9.9c-3.7,.16-9.21-1.15-11.95-1.88,2.64-5.08,6.16-10.45,8.43-11.45,.66-.29,1.34-.47,2.04-.55,2.34,5.3,4.11,9.31,5.45,12.36-1.3,1.17-2.5,1.46-3.97,1.52h0Zm10.54,6.14c-.61-1.38-1.75-3.96-4.19-9.49l6.43-2.84,2.8,6.33-5.04,6Zm40.22-13.91c-5.31,2.34-9.59,3.34-16.63,4.39l-4.73-10.72,6.07-6.99c.93-1.07,.19-2.74-1.22-2.77l-9.26-.22-4.72-10.69c.93-.51,16.19-16.29,41.33-13.64l10.41,23.58c-5.44,7.36-12.74,13.32-21.25,17.08h0Z"/><path class="b" d="M238.62,68.75c-6.44,2.84-9.35,10.36-6.51,16.8,2.84,6.43,10.37,9.35,16.8,6.51,6.44-2.84,9.35-10.36,6.51-16.8-2.84-6.43-10.37-9.35-16.8-6.51Zm9.11,20.64c-4.95,2.19-10.77-.06-12.95-5.02-2.19-4.97,.05-10.76,5.02-12.95,4.95-2.19,10.77,.06,12.95,5.02,2.19,4.95-.06,10.77-5.02,12.95h0Z"/><path class="b" d="M243.03,82.81l2.67-1.18,1.18,2.67-2.67,1.18-1.18-2.67Z"/><path class="b" d="M240.47,77.02l2.67-1.18,1.18,2.67-2.67,1.18-1.18-2.67Z"/></g></svg>