<?xml version="1.0" encoding="UTF-8"?><svg id="a" xmlns="http://www.w3.org/2000/svg" viewBox="0 0 199 221"><defs><style>.b{fill:#02d4da;}</style></defs><path class="b" d="M146.2,11.21c-10.1,0-18.51,7.25-20.31,16.83h6.66c2.16-3.85,7.46-6.58,13.66-6.58s11.49,2.72,13.66,6.58h6.66c-1.81-9.58-10.21-16.83-20.31-16.83Z"/><path class="b" d="M105.76,105.77v21.02h0c0,4.37,3.54,7.91,7.91,7.91s7.91-3.54,7.91-7.91v-21.02h-15.82Z"/><path class="b" d="M170.81,105.77v21.02h0c0,4.37,3.54,7.91,7.91,7.91s7.91-3.54,7.91-7.91v-21.02h-15.82Z"/><path class="b" d="M125.17,118.36v83.31c0,5.24,4.25,9.49,9.49,9.49s9.49-4.25,9.49-9.49V125.81h4.1v75.86c0,5.24,4.25,9.49,9.49,9.49s9.49-4.25,9.49-9.49V118.36h-42.06Z"/><path class="b" d="M186.63,68.64c-.05-10.27-8.58-18.62-19.01-18.62h-6.27v-4.06c2.59-2.79,4.42-6.29,5.16-10.18h-6.65c-2.16,3.85-7.46,6.58-13.66,6.58s-11.49-2.72-13.66-6.58h-6.65c.74,3.89,2.57,7.4,5.16,10.18v4.06h-6.27c-10.43,0-18.96,8.35-19.01,18.62v29.39h15.82v-29.32s.07-.18,.21-.44c.39-.72,1.22-1.09,2.02-.89,.8,.2,1.35,.92,1.35,1.74v41.51h42.06v-41.92c0-.99,.8-1.79,1.79-1.79,.99,0,1.79,.8,1.79,1.79h0v29.32h15.82v-29.35s0-.03,0-.04Zm-25.18,7.27c0,.69-.56,1.26-1.26,1.26h-9.86c-.69,0-1.26-.56-1.26-1.26v-4.84c0-.69,.56-1.26,1.26-1.26h9.86c.69,0,1.26,.56,1.26,1.26v4.84h0Z"/><path class="b" d="M73.21,55.27h-10.36c4.25-5.11,7.46-12.6,8.86-19.09-2.29,5.61-11.96,12.23-14.68,10.7-2.72-1.53-1.87-12.29,.71-16.87,2.58-4.58,7.65-6.62,11.33-4.55,1.91,1.08,3.07,3.06,3.38,5.35,.57-11.76-8.73-21.09-19.98-21.09s-20.55,9.32-19.98,21.09c.31-2.29,1.46-4.27,3.38-5.35,3.68-2.07,8.76-.03,11.33,4.55s3.43,15.34,.71,16.87c-2.75,1.55-12.41-5.17-14.68-10.7,1.4,6.49,4.61,13.98,8.86,19.09h-10.36c-10.09,0-18.34,8.08-18.39,18.05v56.21c0,4.23,3.43,7.65,7.65,7.65s7.65-3.43,7.65-7.65v-56.17s0-.02,0-.04c.02-.95,.8-1.71,1.75-1.69s1.71,.78,1.71,1.73V201.98c0,5.07,4.11,9.18,9.19,9.18s9.18-4.11,9.18-9.18v-73.39h3.96v73.39c0,5.07,4.11,9.18,9.18,9.18s9.02-4.11,9.02-9.18V73.23c0-.97,.75-1.76,1.72-1.81,.97-.05,1.8,.67,1.89,1.63,0,.09,.01,.17,.02,.27v56.21c0,4.23,3.43,7.65,7.65,7.65s7.65-3.43,7.65-7.65v-56.25c-.05-9.93-8.3-18.01-18.39-18.01Z"/></svg>