<?xml version="1.0" encoding="UTF-8"?><svg id="a" xmlns="http://www.w3.org/2000/svg" viewBox="0 0 226 222"><defs><style>.b{fill:#02dbdf;}</style></defs><path class="b" d="M208.32,191.97c-12.84-4.85-26.13-8.73-39.59-11.57,1.14-1.84,1.81-4,1.81-6.32,0-3.21-1.25-6.22-3.51-8.49-1.32-1.32-2.9-2.3-4.62-2.88v-8.89c0-1.66-1.34-3-3-3s-3,1.34-3,3v8.25h-18.37c3.26-3.44,5.26-8.07,5.26-13.17,0-4.45-3.62-8.08-8.08-8.08-5.1,0-9.73,2-13.17,5.26v-15.86c1.15-1.07,2.11-2.35,2.81-3.8,4.82,.36,9.49-2.03,12-6.37,2.51-4.35,2.24-9.59-.48-13.58,2.72-3.99,2.99-9.23,.48-13.58-2.51-4.35-7.18-6.74-12-6.37-2.1-4.35-6.5-7.21-11.52-7.21s-9.42,2.85-11.52,7.21c-4.82-.36-9.49,2.03-12,6.37-2.51,4.35-2.24,9.59,.48,13.58-2.72,3.99-2.99,9.23-.48,13.58,2.51,4.35,7.18,6.73,12,6.37,.7,1.45,1.66,2.73,2.81,3.8v3.85c-3.44-3.26-8.08-5.26-13.17-5.26-4.45,0-8.08,3.62-8.08,8.08,0,10.58,8.6,19.18,19.18,19.18h2.07v6.01h-34.36v-50.72c0-23.75,19.32-43.08,43.08-43.08s43.08,19.32,43.08,43.08v28.68c0,1.66,1.34,3,3,3s3-1.34,3-3v-28.68c0-27.06-22.02-49.08-49.08-49.08s-49.08,22.02-49.08,49.08v51.1c-5.17,1.34-9,6.04-9,11.63,0,2.27,.63,4.45,1.8,6.33-13.45,2.83-26.74,6.71-39.58,11.56-5.89,2.23-7.71,7.73-6.89,12.2,.82,4.47,4.46,8.98,10.76,8.98H204.45c6.3,0,9.95-4.51,10.76-8.98,.82-4.47-1-9.98-6.89-12.2h0Zm-73.12-45.14c1.14,0,2.07,.93,2.07,2.07,0,7.25-5.89,13.16-13.14,13.17h-2.1v-2.07c0-7.26,5.91-13.17,13.17-13.17h0Zm-31.44-26.82c-.3,0-.6,.04-.88,.13-3.05,.94-6.29-.33-7.88-3.09-1.59-2.76-1.08-6.2,1.26-8.37,.61-.57,.96-1.37,.96-2.2s-.35-1.63-.96-2.2c-2.34-2.17-2.86-5.61-1.26-8.37,1.59-2.76,4.84-4.03,7.88-3.09,.8,.25,1.66,.15,2.39-.27,.72-.42,1.24-1.12,1.43-1.93,.71-3.11,3.43-5.28,6.62-5.28s5.91,2.17,6.62,5.28c.19,.81,.7,1.51,1.43,1.93,.72,.42,1.59,.52,2.39,.27,3.05-.94,6.29,.33,7.88,3.09,1.59,2.76,1.08,6.2-1.26,8.37-.61,.57-.96,1.37-.96,2.2s.35,1.63,.96,2.2c2.34,2.17,2.86,5.61,1.26,8.37s-4.84,4.03-7.88,3.09c-.8-.25-1.66-.15-2.39,.27-.72,.42-1.24,1.12-1.43,1.93-.71,3.11-3.43,5.28-6.62,5.28s-5.91-2.17-6.62-5.28c-.19-.81-.7-1.51-1.43-1.93-.46-.27-.98-.4-1.5-.4h0Zm-1.23,30.05c-7.26,0-13.17-5.91-13.17-13.17,0-1.14,.93-2.07,2.07-2.07,7.26,0,13.17,5.91,13.17,13.17v2.07h-2.07Zm8.08,3v-19.72c.87,.19,1.78,.28,2.71,.28s1.83-.1,2.71-.28v28.73h-5.41v-9.01Zm98.69,50.03c-.36,1.96-1.82,4.05-4.86,4.05H21.32c-3.03,0-4.5-2.09-4.86-4.05-.36-1.96,.27-4.43,3.11-5.51,14.08-5.32,28.7-9.44,43.47-12.26,1.33,.49,2.74,.75,4.2,.75h26.11c1.66,0,3-1.34,3-3s-1.34-3-3-3h-26.11c-1.6,0-3.11-.62-4.24-1.76-1.13-1.13-1.76-2.64-1.76-4.24,0-3.31,2.69-6,6-6h91.29c1.6,0,3.11,.62,4.24,1.76,1.13,1.13,1.76,2.64,1.76,4.24,0,3.31-2.69,6-6,6h-51.17c-1.66,0-3,1.34-3,3s1.34,3,3,3h51.17c1.48,0,2.89-.27,4.2-.76,14.79,2.83,29.41,6.95,43.47,12.26,2.84,1.07,3.47,3.55,3.11,5.51h0Z"/><path class="b" d="M46.08,84.4c.06,0,.12,0,.18,0,1.58,0,2.9-1.23,3-2.83,.1-1.66-1.16-3.08-2.82-3.18-2.97-.18-5.87-.77-8.64-1.73l.47-.47c4.49-4.49,4.49-11.79,0-16.28-1.04-1.04-1.61-2.42-1.61-3.89,0-1.47,.57-2.85,1.61-3.89l.2-.2c2.17-2.17,3.37-5.06,3.37-8.14,0-3.07-1.2-5.96-3.37-8.14-2.17-2.17-5.06-3.37-8.14-3.37-3.07,0-5.96,1.2-8.14,3.37l-5.34,5.33c1.11-6.45,4.17-12.39,8.89-17.11,6.04-6.04,14.06-9.36,22.6-9.36,5.4,0,10.59,1.33,15.21,3.84l-7.5,7.5c-2.18,2.18-3.37,5.07-3.37,8.14,0,3.07,1.2,5.96,3.37,8.14,2.17,2.17,5.06,3.37,8.14,3.37s5.97-1.2,8.14-3.37l6.21-6.21c1.17,3.35,1.78,6.91,1.78,10.56,0,8.54-3.33,16.57-9.36,22.6-3.42,3.42-7.44,5.96-11.97,7.55-1.56,.55-2.39,2.27-1.83,3.83s2.27,2.39,3.83,1.83c5.38-1.9,10.16-4.91,14.22-8.97,7.17-7.17,11.12-16.71,11.12-26.85s-3.95-19.68-11.12-26.85c-7.17-7.17-16.71-11.12-26.85-11.12s-19.68,3.95-26.85,11.12c-7.17,7.17-11.12,16.71-11.12,26.85s3.95,19.68,11.12,26.85c6.57,6.58,15.31,10.5,24.58,11.05h0Zm29.75-54.26l-7.75,7.75c-1.04,1.04-2.42,1.61-3.89,1.61s-2.85-.57-3.89-1.61-1.61-2.42-1.61-3.89c0-1.47,.57-2.85,1.61-3.89l8.33-8.33c.8,.66,1.58,1.36,2.32,2.11,1.9,1.9,3.53,4,4.88,6.25Zm-49.39,9.77c1.04-1.04,2.42-1.61,3.89-1.61,1.47,0,2.85,.57,3.89,1.61,1.04,1.04,1.61,2.42,1.61,3.89s-.57,2.85-1.61,3.89l-.2,.2c-2.18,2.18-3.37,5.07-3.37,8.14,0,3.07,1.19,5.96,3.37,8.14s2.15,5.64,0,7.78l-2.01,2.01c-2.26-1.35-4.37-2.97-6.27-4.87-5.25-5.25-8.45-12.01-9.19-19.29l9.89-9.89Z"/><path class="b" d="M113.32,116.7c5.64,0,10.23-4.59,10.23-10.23s-4.59-10.23-10.23-10.23-10.23,4.59-10.23,10.23,4.59,10.23,10.23,10.23Zm0-14.46c2.33,0,4.23,1.9,4.23,4.23s-1.9,4.23-4.23,4.23-4.23-1.9-4.23-4.23,1.9-4.23,4.23-4.23Z"/><path class="b" d="M177.53,47.5l8.25,3.51,3.51,8.25c.92,2.16,3.04,3.56,5.39,3.56s4.47-1.4,5.39-3.56l3.51-8.25,8.25-3.51c2.16-.92,3.56-3.04,3.56-5.39s-1.4-4.47-3.56-5.39l-8.25-3.51-3.51-8.25c-.92-2.16-3.04-3.56-5.39-3.56s-4.47,1.4-5.39,3.56l-3.51,8.25-8.25,3.51c-2.16,.92-3.56,3.04-3.56,5.39s1.4,4.47,3.56,5.39h0Zm11.72-9.23c.71-.3,1.28-.87,1.59-1.59l3.85-9.04,3.85,9.04c.3,.71,.87,1.28,1.59,1.59l9.04,3.85-9.04,3.85c-.71,.3-1.28,.87-1.59,1.59l-3.85,9.04-3.85-9.04c-.3-.71-.87-1.28-1.59-1.59l-9.04-3.85,9.04-3.85Z"/><path class="b" d="M55.78,138.44l-8.25-3.51-3.51-8.25c-.92-2.16-3.04-3.56-5.39-3.56s-4.47,1.4-5.39,3.56l-3.51,8.25-8.25,3.51c-2.16,.92-3.56,3.04-3.56,5.39s1.4,4.47,3.56,5.39l8.25,3.51,3.51,8.25c.92,2.16,3.04,3.56,5.39,3.56s4.47-1.4,5.39-3.56l3.51-8.25,8.25-3.51c2.16-.92,3.56-3.04,3.56-5.39,0-2.35-1.4-4.47-3.56-5.39Zm-11.72,9.23c-.71,.3-1.28,.87-1.59,1.59l-3.85,9.04-3.85-9.04c-.3-.71-.87-1.28-1.59-1.59l-9.04-3.85,9.04-3.85c.71-.3,1.28-.87,1.59-1.59l3.85-9.04,3.85,9.04c.3,.71,.87,1.28,1.59,1.59l9.04,3.85-9.04,3.85Zm9.37-3.7s0,0,0,0l1.18-2.76-1.17,2.77Z"/><path class="b" d="M169.04,126.83l8.25,3.51,3.51,8.25c.92,2.16,3.04,3.56,5.39,3.56s4.47-1.4,5.39-3.56l3.51-8.25,8.25-3.51c2.16-.92,3.56-3.04,3.56-5.39s-1.4-4.47-3.56-5.39l-8.25-3.51-3.51-8.25c-.92-2.16-3.04-3.56-5.39-3.56s-4.47,1.4-5.39,3.56l-3.51,8.25-8.25,3.51c-2.16,.92-3.56,3.04-3.56,5.39,0,2.35,1.4,4.47,3.56,5.39Zm11.72-9.23c.71-.3,1.28-.87,1.59-1.59l3.85-9.04,3.85,9.04c.3,.71,.87,1.28,1.59,1.59l9.04,3.85-9.04,3.85c-.71,.3-1.28,.87-1.59,1.59l-3.85,9.04-3.85-9.04c-.3-.71-.87-1.28-1.59-1.59l-9.04-3.85,9.04-3.85Z"/><path class="b" d="M168.48,192.52c-1.66,0-3,1.34-3,3v.23c0,1.66,1.34,3,3,3s3-1.34,3-3v-.23c0-1.66-1.34-3-3-3Z"/><path class="b" d="M160.66,196.13c-1.66,0-3,1.34-3,3v.23c0,1.66,1.34,3,3,3s3-1.34,3-3v-.23c0-1.66-1.34-3-3-3Z"/><path class="b" d="M71.33,190.76c-1.66,0-3,1.34-3,3v.23c0,1.66,1.34,3,3,3s3-1.34,3-3v-.23c0-1.66-1.34-3-3-3Z"/><path class="b" d="M83.32,188c-1.66,0-3,1.34-3,3v.23c0,1.66,1.34,3,3,3s3-1.34,3-3v-.23c0-1.66-1.34-3-3-3Z"/><path class="b" d="M79.93,197.77c-1.66,0-3,1.34-3,3v.23c0,1.66,1.34,3,3,3s3-1.34,3-3v-.23c0-1.66-1.34-3-3-3Z"/></svg>